<?xml version="1.0" encoding="UTF-8" standalone="no"?>
<!DOCTYPE svg PUBLIC "-//W3C//DTD SVG 1.1//EN" "http://www.w3.org/Graphics/SVG/1.1/DTD/svg11.dtd">
<svg width="100%" height="100%" viewBox="0 0 419 409" version="1.1" xmlns="http://www.w3.org/2000/svg" xmlns:xlink="http://www.w3.org/1999/xlink" xml:space="preserve" xmlns:serif="http://www.serif.com/" style="fill-rule:evenodd;clip-rule:evenodd;stroke-linejoin:round;stroke-miterlimit:2;">
    <g transform="matrix(1,0,0,1,-1649,-2174)">
        <g>
            <g transform="matrix(1,0,0,1,262.172,-272.286)">
                <rect x="1386.91" y="2446.61" width="417.967" height="403.662" style="fill:rgb(30,137,193);fill-opacity:0.64;"/>
            </g>
            <g transform="matrix(1.23535,0,0,1.23535,676.709,-413.871)">
                <path d="M996.175,2228.77C992.451,2220.56 986.638,2223.88 984.433,2225.62C976.225,2232.08 974.923,2245.8 975.377,2257.02C975.606,2262.68 982.857,2276.98 993.992,2270.46" style="fill:white;"/>
                <path d="M996.175,2228.77C995.215,2224.96 993.441,2223.21 991.592,2222.38C988.376,2220.93 984.853,2222.74 983.029,2223.83C979.07,2226.71 976.362,2231.05 974.693,2236.1C972.534,2242.62 972.197,2250.33 972.409,2257.14C972.546,2259.43 973.49,2263 975.569,2266.18C976.706,2267.92 978.11,2269.56 979.79,2270.79C982.026,2272.43 984.531,2273.54 987.291,2273.37C989.491,2273.24 991.711,2272.45 993.992,2270.46C989.921,2271.97 986.936,2271.06 984.551,2269.08C983.834,2268.49 983.263,2267.76 982.667,2267.02C981.773,2265.9 981.081,2264.62 980.433,2263.36C979.207,2260.96 978.379,2258.52 978.344,2256.9C978.037,2250.71 978.304,2243.73 980.016,2237.72C980.709,2235.28 981.615,2233.01 982.87,2231.02C983.715,2229.68 984.657,2228.44 985.838,2227.4C986.386,2226.87 987.191,2226.11 988.222,2225.61C989.032,2225.22 989.89,2224.83 990.883,2224.94C992.559,2225.12 994.32,2226.09 996.175,2228.77Z" style="fill:white;"/>
            </g>
            <g transform="matrix(1.23535,0,0,1.23535,676.709,-413.871)">
                <path d="M921.491,2217.68C920.14,2212.76 919.766,2209.57 914.816,2211.2C903.358,2214.97 898.023,2234.05 904.198,2250.43C906.011,2255.23 917.518,2256.63 916.803,2256.77" style="fill:white;"/>
                <path d="M916.829,2256.74L916.833,2256.75C916.836,2256.76 916.826,2256.76 916.803,2256.77C916.838,2256.77 916.847,2256.76 916.833,2256.75L916.834,2256.75L916.829,2256.74C916.606,2256.52 912.504,2254.95 909.216,2252.67C907.921,2251.76 906.856,2250.75 906.588,2249.53C905.951,2247.51 905.575,2245.47 905.232,2243.43C904.397,2238.47 904.364,2233.53 905.199,2229.05C906.142,2223.99 908.057,2219.55 910.932,2216.51C911.868,2215.51 912.862,2214.65 913.97,2213.97C914.458,2213.67 914.922,2213.35 915.443,2213.11C916.757,2212.44 917.51,2212.03 918.179,2212.46C919.469,2213.29 920.251,2215.19 921.491,2217.68C921.353,2215.73 921.296,2214.14 921.018,2212.81C920.818,2211.86 920.432,2211.14 919.959,2210.53C918.937,2209.2 917.243,2208.79 914.189,2209.29C912.832,2209.59 911.55,2210.09 910.322,2210.76C909.141,2211.41 908.066,2212.27 907.045,2213.23C904.374,2215.75 902.242,2219.22 900.787,2223.25C898.966,2228.29 898.207,2234.25 898.836,2240.31C899.107,2242.93 899.605,2245.59 900.485,2248.15C900.856,2249.24 901.315,2250.28 901.808,2251.33C902.686,2252.94 904.14,2254.36 906.207,2255.2C907.569,2255.74 909.037,2256.16 910.531,2256.38C913.807,2256.85 916.706,2256.65 916.829,2256.74Z" style="fill:white;"/>
            </g>
            <g transform="matrix(1.1658,0,0,1.1658,746.261,-260.279)">
                <path d="M975.741,2208.32C969.837,2207.47 963.165,2209.96 957.16,2215.09C953.543,2218.18 950.208,2222.22 947.473,2227.06C945.072,2231.31 943.224,2236.19 941.958,2241.52C937.852,2260.53 939.877,2272.85 944.117,2280.79C950.265,2292.31 961.128,2295.13 967.023,2295.61C977.236,2296.4 984.623,2292.59 989.855,2285.7C993.19,2281.31 995.65,2275.6 997.284,2268.95C998.588,2263.64 999.361,2257.72 999.771,2251.44C999.933,2247.73 999.79,2243.14 999.033,2238.36C998.027,2232 996.083,2225.3 992.916,2219.85C989.062,2213.21 983.512,2208.39 975.741,2208.32L975.741,2208.32ZM975.741,2208.32C982.967,2209.37 987.523,2214.5 990.361,2221.13C992.676,2226.54 993.761,2232.92 994.173,2238.91C994.48,2243.37 994.411,2247.59 994.025,2250.99C993.485,2256.89 992.573,2262.43 991.264,2267.42C989.761,2273.14 987.715,2278.09 984.829,2281.88C980.851,2287.1 975.247,2289.95 967.494,2289.38C962.858,2289.05 954.346,2286.91 949.367,2277.93C945.428,2270.84 943.665,2259.77 946.987,2242.55C947.84,2237.59 949.337,2233.05 951.208,2228.97C953.359,2224.28 955.992,2220.23 958.984,2216.99C964.094,2211.45 970.051,2208.26 975.741,2208.32L975.741,2208.32Z" style="fill:white;"/>
            </g>
            <g transform="matrix(1.23535,0,0,1.23535,676.709,-413.871)">
                <path d="M907.108,2197.05C900.197,2195.74 894.549,2200.11 890.146,2206.58C887.376,2210.65 885.134,2215.55 883.464,2220.42C881.582,2225.91 880.498,2231.34 879.871,2235.32C877.929,2248.62 878.645,2257.61 880.563,2263.64C884.029,2274.54 891.298,2276.75 895.96,2276.92C902.924,2277.14 908.936,2272.63 913.461,2265.91C918.998,2257.7 922.353,2246.28 923.317,2238.58C923.833,2233.13 924.022,2228.27 923.766,2223.96C923.419,2218.13 922.419,2213.34 920.965,2209.48C917.851,2201.22 912.808,2197.29 907.108,2197.05L907.108,2197.05ZM907.108,2197.05C912.317,2198.05 916.407,2202.3 918.245,2210.3C919.105,2214.04 919.41,2218.57 919.207,2224.01C919.054,2228.12 918.63,2232.72 917.763,2237.85C916.797,2244.83 913.59,2255.13 908.527,2262.57C905.222,2267.43 901.191,2271.17 896.137,2271.03C892.997,2270.95 888.419,2269.17 885.966,2261.87C884.124,2256.39 883.411,2248.2 884.924,2236C885.353,2232.19 886.322,2227.04 887.714,2221.7C888.941,2217 890.476,2212.17 892.595,2208.03C895.932,2201.52 900.534,2196.76 907.108,2197.05L907.108,2197.05Z" style="fill:white;"/>
            </g>
            <g transform="matrix(1.23535,0,0,1.23535,676.709,-413.871)">
                <path d="M984.645,2192.62C985.949,2193.62 986.937,2194.52 988.052,2195.49C988.625,2195.99 989.108,2196.44 989.656,2196.9C990.205,2197.37 990.697,2197.81 991.233,2198.23C993.519,2200.01 995.407,2201.7 996.927,2203.56C998.742,2205.78 1000.01,2208.16 1001.06,2210.7C1001.78,2212.46 1002.34,2214.3 1003.01,2216.16C1003.36,2217.12 1003.77,2218.02 1004.2,2218.97C1004.72,2220.12 1005.26,2221.13 1005.86,2222.29C1006.47,2223.46 1007.04,2224.43 1007.71,2225.62C1007.91,2224.21 1008.12,2223.05 1008.27,2221.68C1008.42,2220.31 1008.52,2219.09 1008.52,2217.76C1008.53,2216.6 1008.45,2215.5 1008.28,2214.39C1007.99,2212.47 1007.4,2210.64 1006.75,2208.88C1006.06,2207.03 1005.18,2205.26 1004.11,2203.6C1002.62,2201.28 1000.78,2199.12 998.366,2197.24C996.973,2196.15 995.444,2195.09 993.619,2194.27C992.925,2193.97 992.224,2193.7 991.45,2193.49C990.705,2193.29 990.004,2193.13 989.196,2193.01C987.699,2192.78 986.33,2192.69 984.645,2192.62Z" style="fill:white;"/>
            </g>
            <g transform="matrix(1.23535,0,0,1.23535,676.709,-413.871)">
                <path d="M882.397,2203.08C883.049,2202.56 883.533,2202.28 884.269,2201.74C884.818,2201.35 885.278,2201.1 885.846,2200.67C886.167,2200.43 886.47,2200.23 886.775,2199.95C887.438,2199.35 888.095,2198.73 888.812,2198.11C889.783,2197.28 890.862,2196.54 892.038,2195.86C893.278,2195.14 894.659,2194.61 896.159,2194.11C896.787,2193.89 897.387,2193.65 898.035,2193.38C899.031,2192.96 899.721,2192.45 900.801,2191.98C901.589,2191.64 902.057,2191.35 902.909,2191.02C902.078,2190.38 901.57,2190.02 900.716,2189.55C899.841,2189.06 899.153,2188.83 898.249,2188.58C897.478,2188.37 896.766,2188.32 896.006,2188.33C894.704,2188.35 893.488,2188.75 892.344,2189.15C891.124,2189.58 890.003,2190.16 888.977,2190.84C887.696,2191.67 886.533,2192.62 885.561,2193.7C884.554,2194.81 883.588,2195.94 883.033,2197.24C882.7,2198.02 882.509,2198.7 882.406,2199.51C882.227,2200.91 882.29,2201.83 882.397,2203.08Z" style="fill:white;"/>
            </g>
            <g transform="matrix(1.23535,0,0,1.23535,676.709,-413.871)">
                <path d="M911.968,2351.73C913.749,2350.13 917.607,2345.75 919.269,2344.38C934.894,2331.49 943.313,2331.27 951.309,2333.08L929.236,2352.96L911.968,2351.73Z" style="fill:white;"/>
                <path d="M911.968,2351.73L911.968,2351.73C913.155,2350.29 915.231,2347.09 916.877,2344.92C917.423,2344.2 917.933,2343.63 918.317,2343.23C920.602,2340.93 922.667,2338.95 924.734,2337.34C929.096,2333.94 933.059,2332.05 936.515,2330.86C942.48,2328.81 947.287,2329.23 951.959,2330.22C953.029,2330.46 953.874,2331.28 954.151,2332.34C954.428,2333.4 954.09,2334.53 953.274,2335.26C953.274,2335.26 946.235,2341.72 940.027,2347.19C938.43,2348.59 936.896,2349.94 935.524,2351.06C932.808,2353.29 930.824,2354.72 930.824,2354.72C930.345,2355.15 929.71,2355.37 929.067,2355.33C929.067,2355.33 924.803,2354.58 920.507,2353.68C916.174,2352.77 911.975,2351.73 911.968,2351.73L911.968,2351.73L911.969,2351.73C912.021,2351.72 916.302,2351.3 920.697,2351.01C923.642,2350.82 926.562,2350.7 928.16,2350.64C928.828,2349.91 930.111,2348.55 931.777,2346.9C933.038,2345.66 934.538,2344.27 936.103,2342.83C938.986,2340.17 942.11,2337.36 944.6,2335.12C942.626,2335.11 940.517,2335.38 938.167,2336.06C935.045,2336.98 931.593,2338.69 927.353,2341.19C925.189,2342.46 922.797,2343.8 920.222,2345.54L911.968,2351.73L911.968,2351.73L911.968,2351.73L911.968,2351.73Z" style="fill:white;"/>
            </g>
            <g transform="matrix(1.23535,0,0,1.23535,676.709,-413.871)">
                <path d="M891.093,2298.62C892.324,2302.62 893.351,2306.56 894.335,2310.51C895.332,2314.52 896.183,2318.47 896.943,2322.43C897.402,2324.83 897.833,2327.2 898.218,2329.58C899.123,2335.18 899.749,2340.74 899.842,2346.31C899.862,2346.88 900.053,2347.42 900.391,2347.87C902.836,2351.18 906.433,2353.6 911.067,2355.16C915.918,2356.79 921.97,2357.45 928.996,2357.32C929.652,2357.3 930.285,2357.07 930.794,2356.65C936.03,2352.37 941.041,2347.86 945.646,2343.13C948.808,2339.88 951.818,2336.56 954.568,2333.16C956.279,2331.05 957.877,2328.91 959.386,2326.75C961.764,2323.35 963.897,2319.96 965.832,2316.61C968.185,2312.52 970.153,2308.56 971.885,2304.76C969.453,2308.12 966.691,2311.52 963.671,2315.09C961.215,2317.99 958.602,2320.91 955.848,2323.91C954.112,2325.8 952.327,2327.7 950.515,2329.64C947.61,2332.74 944.617,2335.89 941.478,2338.99C937.157,2343.25 932.624,2347.46 927.827,2351.41C922,2351.52 916.951,2351.02 912.842,2349.72C909.68,2348.72 907.097,2347.27 905.251,2345.17C904.916,2339.66 904.204,2334.14 902.974,2328.66C902.428,2326.23 901.793,2323.81 901.034,2321.4C899.795,2317.47 898.314,2313.6 896.612,2309.73C894.959,2305.98 893.088,2302.33 891.093,2298.62Z" style="fill:white;"/>
            </g>
            <g transform="matrix(1.23535,0,0,1.23535,676.709,-413.871)">
                <path d="M847.829,2273.97C846.417,2275.59 846.445,2278.41 847.617,2282.22C848.679,2285.67 850.672,2289.9 853.483,2294.71C854.424,2296.32 855.486,2297.96 856.603,2299.68C857.062,2300.31 857.813,2300.66 858.588,2300.6C862.752,2300.38 866.734,2300.34 870.554,2300.36C880.869,2300.41 889.965,2301.28 898.097,2302.92C906.484,2304.61 913.82,2307.09 920.391,2310.16C925.297,2312.46 929.793,2315.05 933.939,2317.94C934.559,2318.38 935.331,2318.56 936.081,2318.42C939.934,2317.55 943.72,2316.79 947.305,2315.89C951.321,2314.87 955.06,2313.76 958.448,2312.54C964.377,2310.4 969.072,2307.95 971.885,2304.87C969.33,2306.76 965.744,2307.99 961.392,2308.97C957.519,2309.85 953.109,2310.45 948.316,2311.05C946.167,2311.32 943.962,2311.58 941.703,2311.89C939.923,2312.13 938.122,2312.4 936.299,2312.67C932.196,2309.76 927.781,2307.09 922.932,2304.78C915.971,2301.47 908.141,2298.87 899.205,2297.2C890.716,2295.62 881.21,2294.84 870.478,2295.21C866.915,2295.33 863.223,2295.62 859.383,2296C858.425,2294.82 857.519,2293.66 856.643,2292.55C853.318,2288.34 850.687,2284.71 849.091,2281.62C847.372,2278.29 846.815,2275.71 847.829,2273.97Z" style="fill:white;"/>
            </g>
            <g transform="matrix(1.23535,0,0,1.23535,676.709,-413.871)">
                <path d="M847.075,2273.97C853.269,2281.73 862.717,2285.57 874.299,2286.54C882.579,2287.23 891.936,2286.45 901.931,2284.51C907.242,2283.48 912.716,2282.07 918.32,2280.45C926.842,2289.23 936.002,2295.41 945.796,2298.95C955.873,2302.6 966.626,2303.46 978.064,2301.5C978.238,2302.09 978.363,2302.67 978.436,2303.25C978.57,2304.33 978.512,2305.4 978.263,2306.55C970.492,2318.24 963.026,2327.95 955.846,2336.09C946.481,2346.7 937.594,2354.59 928.988,2360.54C919.917,2360.51 913.139,2359.8 908.073,2358.63C902.295,2357.3 898.895,2355.45 897.037,2352.99C896.668,2343.22 895.843,2333.72 893.924,2324.72C891.843,2314.97 888.524,2305.88 883.421,2297.69C886.875,2304.52 889.093,2311.83 890.518,2319.5C892.53,2330.34 892.894,2341.87 892.464,2353.75C892.464,2354.18 892.585,2354.6 892.813,2354.97C894.922,2358.53 898.998,2361.72 906.792,2363.8C912.287,2365.26 919.764,2366.14 929.857,2366.34C930.445,2366.34 931.02,2366.17 931.507,2365.84C939.107,2360.73 946.957,2354.22 955.088,2345.72C964.126,2336.28 973.515,2324.38 983.419,2309.34C983.599,2309.06 983.732,2308.76 983.813,2308.45C984.334,2306.36 984.446,2304.43 984.191,2302.51C983.956,2300.74 983.41,2298.96 982.547,2297.04C981.994,2295.8 980.651,2295.12 979.322,2295.39C968.068,2297.81 957.513,2297.26 947.618,2293.82C938.093,2290.51 929.177,2284.55 920.839,2275.98C920.194,2275.3 919.224,2275.05 918.333,2275.33C912.407,2277.28 906.597,2278.91 901.006,2280.28C891.423,2282.62 882.467,2284.03 874.418,2283.95C863.136,2283.86 853.705,2280.96 847.075,2273.97Z" style="fill:white;"/>
            </g>
            <g transform="matrix(1.23535,0,0,1.23535,670.709,-413.871)">
                <path d="M940.966,2358.52C940.966,2358.52 941.06,2358.82 942.108,2359.97C942.493,2360.4 942.694,2360.67 943.301,2361.11C943.521,2361.27 943.74,2361.37 944.011,2361.49C944.535,2361.72 945.102,2361.89 945.717,2362.07C946.905,2362.4 948.188,2362.72 949.438,2362.91C950.168,2363.03 950.882,2363.14 951.551,2363.1C951.908,2363.08 952.188,2363.02 952.5,2362.91C953.304,2362.64 953.597,2362.42 954.163,2362.1C955.678,2361.22 955.881,2360.94 955.881,2360.94C955.881,2360.94 955.777,2360.61 954.617,2359.3C954.183,2358.81 953.974,2358.51 953.297,2358C953.034,2357.8 952.789,2357.65 952.456,2357.52C951.833,2357.27 951.121,2357.15 950.392,2357.03C949.145,2356.82 947.828,2356.71 946.596,2356.65C945.958,2356.62 945.364,2356.61 944.795,2356.66C944.5,2356.69 944.26,2356.72 944.001,2356.8C943.285,2357.02 943.009,2357.22 942.509,2357.5C941.151,2358.26 940.966,2358.52 940.966,2358.52Z" style="fill:white;"/>
            </g>
            <g transform="matrix(1.23535,0,0,1.23535,670.709,-413.871)">
                <path d="M868.807,2298.23C870.332,2317.73 872.559,2329.54 876.791,2337.22C878.291,2339.94 880.005,2342.22 882.084,2344.03C883.524,2345.29 885.09,2346.38 886.865,2347.2C888.876,2348.14 891.013,2348.8 893.446,2349.28C895.548,2349.7 897.66,2349.9 900.099,2350.11C898.011,2348.93 896.272,2347.8 894.508,2346.66C892.628,2345.44 891.05,2344.22 889.485,2342.97C888.244,2341.98 887.116,2340.96 886.032,2339.85C884.494,2338.28 883.096,2336.53 881.873,2334.38C877.787,2327.18 875.336,2316.16 873.258,2297.81C873.141,2296.58 872.048,2295.68 870.82,2295.79C869.591,2295.91 868.69,2297 868.807,2298.23Z" style="fill:white;"/>
            </g>
            <g transform="matrix(1.23535,0,0,1.23535,673.509,-413.82)">
                <path d="M880.824,2185.99C879.722,2185.34 877.669,2188.51 875.249,2194.35C874.645,2195.81 874.037,2197.4 873.439,2199.17C872.922,2200.7 872.42,2202.34 871.953,2204.08C871.291,2206.55 870.71,2209.23 870.134,2212.04C869.357,2215.83 868.653,2219.89 867.993,2224.08C865.431,2240.34 863.569,2258.72 863.733,2272.86C863.787,2277.55 864.107,2281.78 864.636,2285.32L869.992,2284.59C869.57,2281.23 869.427,2277.24 869.416,2272.82C869.395,2264.54 869.937,2254.77 870.917,2244.84C871.634,2237.57 872.594,2230.22 873.591,2223.29C874.318,2218.23 875.11,2213.41 875.832,2209C876.159,2207 876.47,2205.1 876.741,2203.29C876.941,2201.95 877.096,2200.68 877.263,2199.46C877.555,2197.33 877.828,2195.43 878.106,2193.73C878.941,2188.62 879.742,2185.7 880.824,2185.99Z" style="fill:white;"/>
            </g>
            <g transform="matrix(1.23535,0,0,1.23535,670.709,-413.871)">
                <path d="M955.741,2360.94C955.741,2360.94 955.171,2361.94 954.313,2363.87C954.04,2364.49 953.797,2365.09 953.519,2365.84C953.321,2366.38 953.129,2366.89 952.966,2367.49C952.818,2368.03 952.713,2368.58 952.61,2369.16C952.239,2371.24 951.957,2373.45 951.715,2375.43C951.284,2378.96 951.071,2381.74 951.071,2381.74C951.061,2381.87 951.059,2382 951.066,2382.14C951.197,2383.93 951.368,2385.58 951.787,2387.04C952.124,2388.21 952.494,2389.3 953.076,2390.21C953.95,2391.59 954.86,2392.61 956.037,2393.45C957.313,2394.35 958.409,2394.85 959.845,2395.23C958.99,2393.92 958.618,2392.69 958.228,2391.05C958.106,2390.54 958.102,2390.08 957.995,2389.53C957.856,2388.83 957.819,2388.13 957.69,2387.35C957.576,2386.66 957.458,2385.95 957.35,2385.19C957.212,2384.21 957.08,2383.16 957.025,2382.04C957.078,2381.36 957.267,2378.91 957.386,2375.89C957.465,2373.9 957.542,2371.67 957.511,2369.55C957.502,2368.97 957.486,2368.41 957.427,2367.85C957.362,2367.24 957.255,2366.7 957.146,2366.13C956.992,2365.35 956.849,2364.71 956.679,2364.06C956.142,2362.02 955.741,2360.94 955.741,2360.94Z" style="fill:white;"/>
            </g>
            <g transform="matrix(1.23535,0,0,1.23535,670.709,-413.871)">
                <path d="M985.163,2360.94C985.163,2360.94 984.228,2362.4 983.058,2364.75C982.464,2365.94 981.847,2367.21 981.322,2368.64C980.926,2369.71 980.656,2370.81 980.378,2371.83C979.994,2373.25 979.682,2374.51 979.472,2375.39C976.765,2376.95 974.308,2378.55 972.163,2380.28C970.333,2381.76 968.642,2383.25 967.291,2384.91C966.551,2385.83 965.935,2386.75 965.397,2387.74C964.722,2388.98 964.224,2390.12 963.78,2391.4C963.312,2392.74 963.032,2393.89 962.734,2395.23C963.753,2394.36 964.703,2393.72 965.8,2392.86C967.247,2391.74 968.705,2390.81 970.257,2389.61C971.166,2388.9 972.036,2388.12 972.964,2387.34C974.262,2386.25 975.61,2385.12 977.074,2384.01C978.987,2382.55 981.043,2381.06 983.347,2379.64C984.037,2379.23 984.521,2378.55 984.677,2377.76C984.677,2377.76 985.061,2375.61 985.416,2372.83C985.55,2371.78 985.722,2370.66 985.767,2369.52C985.826,2368.01 985.742,2366.6 985.649,2365.27C985.466,2362.65 985.163,2360.94 985.163,2360.94Z" style="fill:white;"/>
            </g>
            <g transform="matrix(1.23535,0,0,1.23535,670.709,-413.871)">
                <path d="M973.949,2382C975.68,2380.95 977.903,2380.47 980.712,2380.27C981.803,2380.2 982.927,2380.21 984.163,2380.21C985.261,2380.22 986.393,2380.28 987.603,2380.31C991.649,2380.42 996.293,2380.85 1001.39,2381.76C1005.99,2382.59 1010.93,2383.79 1016.11,2385.29C1019.26,2386.2 1022.47,2387.28 1025.8,2388.31C1027.42,2388.8 1029.05,2389.24 1030.73,2389.69C1032.68,2390.22 1034.59,2390.68 1036.59,2391.2C1038.59,2391.73 1040.5,2392.19 1042.53,2392.76C1040.87,2391.44 1039.32,2390.2 1037.62,2389C1035.89,2387.78 1034.21,2386.67 1032.43,2385.62C1030.88,2384.72 1029.34,2383.9 1027.74,2383.18C1024.43,2381.68 1021.07,2380.56 1017.81,2379.57C1012.38,2377.93 1007.13,2376.82 1002.27,2376.17C996.758,2375.43 991.715,2375.2 987.401,2375.7C986.078,2375.85 984.845,2376.08 983.676,2376.39C982.352,2376.74 981.166,2377.14 980.056,2377.62C977.281,2378.84 975.27,2380.27 973.949,2382Z" style="fill:white;"/>
            </g>
            <g transform="matrix(1.23535,0,0,1.23535,670.709,-413.871)">
                <path d="M985.163,2360.21C986.844,2360.72 989.724,2361.05 993.539,2361.31C998.66,2361.68 1005.43,2361.92 1013.19,2362.37C1020.29,2362.7 1027.41,2362.09 1033.25,2361.05C1040.01,2359.85 1045.06,2358.02 1046.7,2356.93C1054.38,2351.68 1062.99,2337.2 1070.02,2319.41C1077.98,2299.26 1084.03,2274.91 1085.29,2255.83C1085.86,2246.05 1086.74,2236.87 1086.98,2227.22C1087.13,2221.08 1087.04,2214.74 1086.55,2207.96C1086.01,2200.65 1085,2192.83 1083.29,2184.15C1081.9,2177.03 1079.99,2169.39 1077.55,2160.94C1079.05,2169.56 1080.02,2177.34 1080.72,2184.53C1081.55,2193.19 1081.88,2200.93 1081.91,2208.14C1081.94,2214.8 1081.7,2220.99 1081.36,2227C1080.82,2236.59 1080.04,2245.72 1079.37,2255.45C1078.22,2274.02 1072.29,2297.68 1064.76,2317.37C1058.38,2334.03 1050.98,2347.89 1043.9,2352.91C1042.28,2354.1 1036.53,2355.97 1029.22,2357.47C1024.34,2358.47 1018.8,2359.33 1013.21,2359.5C1005.44,2359.83 998.687,2360.24 993.556,2360.41C989.757,2360.54 986.878,2360.53 985.163,2360.21Z" style="fill:white;"/>
            </g>
            <g transform="matrix(1.23535,0,0,1.23535,670.709,-413.871)">
                <path d="M918.945,2176.73C917.141,2176.93 915.981,2177.33 915.368,2177.83C914.495,2178.54 914.538,2179.44 915.457,2180.58C916.515,2183.24 919.491,2185.22 923.986,2186.45C925.932,2186.98 928.163,2187.32 930.637,2187.48C937.384,2187.9 945.883,2186.96 955.025,2185.16C961.862,2183.81 969.077,2181.93 976.172,2179.54C980.795,2177.98 985.394,2176.26 989.753,2174.22C991.54,2173.39 993.26,2172.48 994.944,2171.53C997.564,2170.05 1000.02,2168.51 1002.39,2166.88C1005.19,2164.95 1007.7,2162.97 1010.09,2160.94C1007.28,2162.24 1004.33,2163.38 1001.18,2164.56C998.553,2165.55 995.875,2166.47 993.097,2167.43C991.319,2168.04 989.528,2168.64 987.721,2169.28C983.318,2170.85 978.837,2172.45 974.319,2173.9C967.394,2176.11 960.44,2178.05 953.84,2179.53C945.173,2181.48 937.152,2182.55 930.711,2182.78C927.836,2182.87 925.31,2182.89 923.151,2182.59C920.184,2182.17 917.971,2181.44 916.846,2179.81C916.801,2179.73 916.742,2179.65 916.67,2179.59C916.089,2179.2 915.764,2178.89 916.06,2178.48C916.476,2177.9 917.423,2177.33 918.945,2176.73Z" style="fill:white;"/>
            </g>
            <g transform="matrix(1.23535,0,0,1.23535,670.709,-413.871)">
                <path d="M1076.32,2160.94C1076.32,2160.94 1071.01,2156.18 1062.86,2150.86C1058.58,2148.07 1053.54,2145.14 1048.07,2142.65C1040.3,2139.2 1029.38,2135.97 1017.76,2133.8C1007.19,2131.81 996.061,2130.73 986.288,2130.66C974.147,2130.65 961.246,2129.57 948.967,2128.12C923.706,2125.16 901.062,2120.57 892.942,2119.75C858.563,2116.39 839.581,2126.25 830.599,2139.94C823.949,2150.08 822.617,2162.46 824.818,2173.57C827.415,2186.68 834.865,2197.91 843.089,2201.8C850.632,2206.71 857.087,2210.34 862.834,2213.05C871.26,2217.03 878.092,2219.05 884.409,2220.45C878.275,2218.57 871.697,2216.01 863.659,2211.46C858.174,2208.36 852.021,2204.34 844.883,2198.93C844.816,2198.88 844.744,2198.84 844.67,2198.8C840.81,2196.71 837.394,2192.61 834.718,2187.47C832.461,2183.14 830.809,2178.04 829.939,2172.66C828.35,2162.82 829.521,2152.02 835.458,2143.16C843.746,2130.81 861.129,2122.54 892.365,2125.63C900.476,2126.4 923.102,2130.9 948.346,2133.63C960.841,2134.98 973.972,2135.88 986.314,2135.75C995.837,2135.58 1006.68,2136.54 1017.05,2138.05C1028.49,2139.71 1039.33,2142.05 1047.1,2145C1052.64,2147.04 1057.8,2149.55 1062.2,2151.97C1070.68,2156.63 1076.32,2160.94 1076.32,2160.94Z" style="fill:white;"/>
            </g>
            <g transform="matrix(1.23535,0,0,1.23535,670.709,-413.871)">
                <path d="M867.313,2187.25L880.909,2186.51C889.188,2186.58 897.058,2185.66 904.47,2183.99C912.502,2182.18 920.006,2179.55 926.919,2176.49C929.259,2175.45 931.538,2174.38 933.724,2173.23C937.168,2171.43 940.413,2169.52 943.468,2167.58C947.683,2164.89 951.497,2162.18 955.007,2159.65C959.305,2156.54 963.017,2153.71 966.337,2151.54C962.796,2153.02 958.738,2154.94 954.187,2157.22C948.829,2159.9 942.838,2162.9 936.264,2165.93C934.311,2166.83 932.326,2167.76 930.29,2168.68C925.818,2170.7 921.118,2172.68 916.162,2174.42C905.526,2178.14 893.749,2180.82 880.855,2180.82C880.79,2180.82 880.724,2180.82 880.659,2180.82L866.589,2181.9L866.765,2187.28L865.848,2182.06C856.89,2185.52 855.533,2193.97 859.814,2202.46C862.018,2206.84 865.711,2211.16 870.222,2214.48C874.48,2217.61 879.409,2219.82 884.409,2220.45C880.531,2219.24 876.941,2216.96 873.739,2214.15C870.634,2211.42 868.029,2208.16 866.04,2204.81C864.329,2201.93 863.145,2199 862.697,2196.26C862.049,2192.31 863.201,2188.83 867.313,2187.25Z" style="fill:white;"/>
            </g>
            <g transform="matrix(1.23535,0,0,1.23535,670.709,-413.871)">
                <path d="M956.989,2421.87C955.2,2420.65 953.47,2419.2 951.593,2417.58C949.933,2416.14 948.31,2414.6 946.618,2412.98C945.656,2412.06 944.701,2411.12 943.726,2410.18C941.486,2408.02 939.275,2405.79 937.276,2403.48C933.464,2399.07 930.344,2394.49 928.975,2390.28C931.792,2385.77 934.436,2382.2 937.008,2379.26C938.446,2377.62 939.808,2376.16 941.309,2374.9C943.107,2373.41 944.914,2372.14 947.087,2371.13C949.192,2370.16 951.392,2369.35 954.042,2368.77C951.232,2368.41 948.777,2368.34 946.374,2368.64C943.62,2368.99 941.153,2369.81 938.748,2371.07C936.7,2372.14 934.784,2373.57 932.922,2375.36C929.632,2378.52 926.653,2382.88 923.226,2388.25C922.791,2388.95 922.663,2389.79 922.871,2390.59C923.834,2394.09 925.831,2397.9 928.616,2401.64C930.873,2404.66 933.613,2407.67 936.641,2410.45C938.034,2411.72 939.467,2412.97 940.975,2414.1C941.992,2414.87 943.022,2415.58 944.087,2416.24C946.172,2417.53 948.246,2418.63 950.344,2419.55C952.662,2420.58 954.856,2421.3 956.989,2421.87Z" style="fill:white;"/>
            </g>
            <g transform="matrix(1.23535,0,0,1.23535,670.709,-413.871)">
                <path d="M956.989,2421.87C956.989,2421.87 966.81,2418.07 976.6,2414.09C985.122,2410.62 993.575,2407.03 995.601,2406.17C998.456,2406.12 1002.34,2407.6 1006.79,2409.57C1015.52,2413.42 1026.11,2419.36 1034.95,2422.51C1039.46,2424.11 1043.58,2424.96 1046.88,2424.69C1054.07,2424.08 1058.4,2423.08 1061.55,2419.5C1064.51,2416.14 1066.44,2410.09 1068.35,2398.55C1068.75,2396.11 1068.12,2393.68 1066.51,2391.33C1065.07,2389.22 1062.77,2387.13 1059.82,2385.14C1055.27,2382.06 1049.13,2379.09 1042.53,2376.43C1038.65,2374.87 1034.6,2373.45 1030.68,2372.06C1030.6,2372.03 1030.52,2372.01 1030.44,2371.98C1021.92,2370.11 1014.43,2369.03 1007.86,2368.56C998.377,2367.89 990.915,2368.38 985.163,2368.77C990.865,2369.11 998.233,2369.7 1007.49,2371.41C1013.76,2372.57 1020.88,2374.2 1028.89,2376.77C1032.14,2378.11 1035.45,2379.54 1038.71,2380.95C1043.82,2383.16 1048.78,2385.41 1052.9,2387.78C1056.18,2389.67 1058.93,2391.59 1060.72,2393.6C1061.91,2394.92 1062.7,2396.2 1062.47,2397.58C1060.87,2407.45 1059.63,2412.74 1057.12,2415.63C1054.86,2418.23 1051.57,2418.46 1046.37,2418.95C1042.31,2419.34 1036.8,2417.41 1030.82,2414.9C1022.72,2411.49 1013.91,2406.86 1006.64,2404.12C1001.98,2402.36 997.884,2401.38 994.914,2401.68C994.644,2401.71 994.381,2401.78 994.136,2401.89C994.136,2401.89 984.777,2406.72 975.485,2411.72C966.175,2416.72 956.989,2421.87 956.989,2421.87Z" style="fill:white;"/>
            </g>
            <g transform="matrix(1.23535,0,0,1.23535,670.709,-413.871)">
                <path d="M931.489,2402.62C930.551,2402.88 929.995,2402.99 929.106,2403.31C928.288,2403.61 927.689,2403.87 926.96,2404.3C926.589,2404.52 926.282,2404.78 925.958,2405.05C925.203,2405.69 924.543,2406.38 923.898,2407.07C922.429,2408.66 921.136,2410.28 920.041,2411.94C919.386,2412.93 918.759,2413.92 918.326,2414.97C918.125,2415.45 917.973,2415.92 917.883,2416.43C917.708,2417.41 917.67,2418.13 917.691,2419.1C917.715,2420.2 917.824,2420.81 917.959,2421.87C918.739,2421.32 919.225,2421.08 920.023,2420.51C920.703,2420.03 921.217,2419.71 921.868,2419.15C922.308,2418.77 922.702,2418.43 923.091,2417.98C923.327,2417.7 923.529,2417.41 923.733,2417.1C924.72,2415.64 925.75,2414.11 926.823,2412.52C927.832,2411.02 928.952,2409.53 929.917,2407.83C930.178,2407.37 930.337,2406.93 930.525,2406.43C930.732,2405.87 930.834,2405.45 930.989,2404.87C931.213,2404.01 931.281,2403.5 931.489,2402.62Z" style="fill:white;"/>
            </g>
            <g transform="matrix(-1.1751,0.945394,-0.998057,-1.24056,6438.1,3476.13)">
                <path d="M1882.93,2335.55L1886.71,2349.48L1879.16,2349.48L1882.93,2335.55Z" style="fill:rgb(111,180,215);"/>
            </g>
            <g transform="matrix(-1.19125,0.958381,-1.00353,-1.24736,6390.63,3450.63)">
                <path d="M1882.93,2335.55L1886.71,2349.48L1879.16,2349.48L1882.93,2335.55Z" style="fill:rgb(111,180,215);"/>
            </g>
        </g>
    </g>
</svg>
