<?xml version="1.0" encoding="UTF-8" standalone="no"?>
<!DOCTYPE svg PUBLIC "-//W3C//DTD SVG 1.1//EN" "http://www.w3.org/Graphics/SVG/1.1/DTD/svg11.dtd">
<svg width="100%" height="100%" viewBox="0 0 906 1637" version="1.1" xmlns="http://www.w3.org/2000/svg" xmlns:xlink="http://www.w3.org/1999/xlink" xml:space="preserve" xmlns:serif="http://www.serif.com/" style="fill-rule:evenodd;clip-rule:evenodd;stroke-linecap:round;stroke-linejoin:round;stroke-miterlimit:1.5;">
    <g transform="matrix(1,0,0,1,-297,-399)">
        <g transform="matrix(1,0,0,1,252.591,-796.492)">
            <g transform="matrix(1,0,0,1,-273.651,-126.209)">
                <g transform="matrix(1,-0,-0,1,318.06,1321.7)">
                    <path d="M136.73,223.796L141.702,182.166L172.023,211.122L136.73,223.796Z"/>
                    <path d="M212.189,378.449C212.189,378.449 171.348,264.719 151.842,210.4" style="fill:none;stroke:black;stroke-width:12.5px;"/>
                </g>
            </g>
            <g transform="matrix(0.879197,0.476459,-0.476459,0.879197,712.1,-185.307)">
                <g transform="matrix(0.879197,-0.476459,0.476459,0.879197,70.8632,1532.12)">
                    <path d="M331.174,194.686L355.381,160.454L368.243,200.359L331.174,194.686Z" style="fill:rgb(164,164,164);"/>
                    <path d="M323.832,366.61C323.832,366.61 342.112,247.159 350.843,190.109" style="fill:none;stroke:rgb(164,164,164);stroke-width:12.5px;stroke-dasharray:12.5,25,0,0;"/>
                </g>
            </g>
            <g transform="matrix(0.561977,0.827153,-0.827153,0.561977,1551.62,205.023)">
                <g transform="matrix(0.561977,-0.827153,0.827153,0.561977,-27.75,1803.32)">
                    <path d="M486.328,240.539L522.211,218.853L518.03,260.57L486.328,240.539Z" style="fill:rgb(164,164,164);"/>
                    <path d="M408.687,398.511C408.687,398.511 474.892,293.738 506.185,244.214" style="fill:none;stroke:rgb(164,164,164);stroke-width:12.5px;stroke-dasharray:12.5,25,0,0;"/>
                </g>
            </g>
            <g transform="matrix(-0.16729,0.985908,-0.985908,-0.16729,2395.54,1602.73)">
                <g transform="matrix(-0.16729,-0.985908,0.985908,-0.16729,-8.1805,2386.13)">
                    <path d="M751.332,597.075L791.544,608.942L757.924,633.992L751.332,597.075Z" style="fill:rgb(164,164,164);"/>
                    <path d="M586.235,645.599C586.235,645.599 705.195,624.36 762.011,614.215" style="fill:none;stroke:rgb(164,164,164);stroke-width:12.5px;stroke-dasharray:12.5,25,0,0;"/>
                </g>
            </g>
            <g transform="matrix(-0.16729,0.985908,-0.985908,-0.16729,2359.73,1492.17)">
                <g transform="matrix(-0.16729,-0.985908,0.985908,-0.16729,94.8285,2332.32)">
                    <path d="M710.047,452.22L751.94,450.565L728.129,485.073L710.047,452.22Z" style="fill:rgb(164,164,164);"/>
                    <path d="M555.936,558.445C555.936,558.445 672.226,494.439 725.658,465.03" style="fill:none;stroke:rgb(164,164,164);stroke-width:12.5px;stroke-dasharray:12.5,25,0,0;"/>
                </g>
            </g>
            <g transform="matrix(-0.16729,0.985908,-0.985908,-0.16729,2292.89,1407.7)">
                <g transform="matrix(-0.16729,-0.985908,0.985908,-0.16729,166.933,2252.29)">
                    <path d="M613.543,333.231L653.076,319.269L640.526,359.273L613.543,333.231Z" style="fill:rgb(164,164,164);"/>
                    <path d="M500.117,477.754C500.117,477.754 590.401,384.209 632.243,340.855" style="fill:none;stroke:rgb(164,164,164);stroke-width:12.5px;stroke-dasharray:12.5,25,0,0;"/>
                </g>
            </g>
            <g transform="matrix(-0.269853,0.962902,-0.962902,-0.269853,2400.87,1907.78)">
                <g transform="matrix(-0.269853,-0.962902,0.962902,-0.269853,-49.9592,2461.26)">
                    <path d="M739.883,789.943L771.014,818.026L729.869,826.081L739.883,789.943Z"/>
                    <path d="M576.299,764.071C576.299,764.071 687.873,794.988 742.104,810.015" style="fill:none;stroke:black;stroke-width:12.5px;"/>
                </g>
            </g>
            <g transform="matrix(1,0,0,1,-273.651,-126.209)">
                <path d="M529.659,1700.15C712.365,1632.25 956.718,1869.12 894.359,2085.77" style="fill:none;stroke:rgb(164,164,164);stroke-width:12.5px;stroke-dasharray:12.5,25,0,0;"/>
            </g>
        </g>
        <g transform="matrix(0.189997,-0.981785,0.981785,0.189997,-1487.39,1750.21)">
            <g transform="matrix(6.12323e-17,1,-1,6.12323e-17,2071.19,1375.44)">
                <g transform="matrix(0.981785,-0.189997,0.189997,0.981785,119.718,405.556)">
                    <path d="M84.211,1193.3L89.863,1151.75L119.707,1181.2L84.211,1193.3Z"/>
                    <path d="M157.085,1349.01C157.085,1349.01 118.146,1234.75 99.54,1180.15" style="fill:none;stroke:black;stroke-width:12.5px;"/>
                </g>
            </g>
            <g transform="matrix(-0.476459,0.879197,-0.879197,-0.476459,2187.54,2400.56)">
                <g transform="matrix(0.772656,-0.634825,0.634825,0.772656,-547.351,890.246)">
                    <path d="M271.089,1139.83L283.412,1099.76L308.078,1133.66L271.089,1139.83Z" style="fill:rgb(164,164,164);"/>
                    <path d="M318.467,1309.87C318.467,1309.87 298.007,1187.24 288.349,1129.35" style="fill:none;stroke:rgb(164,164,164);stroke-width:12.5px;stroke-dasharray:12.5,25,0,0;"/>
                </g>
            </g>
            <g transform="matrix(-0.985908,-0.16729,0.16729,-0.985908,704.896,3951.86)">
                <g transform="matrix(-0.351562,-0.936165,0.936165,-0.351562,-536.215,2582.8)">
                    <path d="M467.285,1147.84L493.6,1115.19L503.923,1155.83L467.285,1147.84Z" style="fill:rgb(164,164,164);"/>
                    <path d="M451.373,1308.69C451.373,1308.69 475.397,1198.61 487.203,1144.51" style="fill:none;stroke:rgb(164,164,164);stroke-width:12.5px;stroke-dasharray:12.5,25,0,0;"/>
                </g>
            </g>
            <g transform="matrix(-0.985908,-0.16729,0.16729,-0.985908,708.219,4071.22)">
                <g transform="matrix(-0.351562,-0.936165,0.936165,-0.351562,-512.971,2699.92)">
                    <path d="M662.325,1203.84L698.514,1182.67L693.737,1224.33L662.325,1203.84Z" style="fill:rgb(164,164,164);"/>
                    <path d="M583.779,1358.62C583.779,1358.62 650.423,1256.42 682.128,1207.8" style="fill:none;stroke:rgb(164,164,164);stroke-width:12.5px;stroke-dasharray:12.5,25,0,0;"/>
                </g>
            </g>
            <g transform="matrix(-0.637707,0.770279,-0.770279,-0.637707,2022.35,3121.2)">
                <g transform="matrix(0.635086,-0.772441,0.772441,0.635086,-1025.02,1311.71)">
                    <path d="M802.537,1328.72L843.384,1319.27L826.437,1357.62L802.537,1328.72Z"/>
                    <path d="M687.685,1448.05C687.685,1448.05 776.902,1374.26 820.266,1338.39" style="fill:none;stroke:black;stroke-width:12.5px;"/>
                </g>
            </g>
            <g transform="matrix(6.12323e-17,1,-1,6.12323e-17,2071.19,1375.44)">
                <path d="M529.659,1700.15C692.306,1603.47 901.036,1561.62 1070,1696.57" style="fill:none;stroke:rgb(164,164,164);stroke-width:12.5px;stroke-dasharray:12.5,25,0,0;"/>
            </g>
        </g>
    </g>
</svg>
