<?xml version="1.0" encoding="UTF-8" standalone="no"?>
<!DOCTYPE svg PUBLIC "-//W3C//DTD SVG 1.1//EN" "http://www.w3.org/Graphics/SVG/1.1/DTD/svg11.dtd">
<svg width="100%" height="100%" viewBox="0 0 906 1637" version="1.1" xmlns="http://www.w3.org/2000/svg" xmlns:xlink="http://www.w3.org/1999/xlink" xml:space="preserve" xmlns:serif="http://www.serif.com/" style="fill-rule:evenodd;clip-rule:evenodd;stroke-linecap:round;stroke-linejoin:round;stroke-miterlimit:1.5;">
    <g transform="matrix(1,0,0,1,-1240,-399)">
        <g>
            <g transform="matrix(0.543197,-0.839606,0.839606,0.543197,4.17367,1440.38)">
                <rect x="631.983" y="1607.11" width="176.444" height="176.444" style="fill:rgb(218,218,218);fill-opacity:0.4;"/>
            </g>
            <g transform="matrix(0.166982,-0.98596,0.98596,0.166982,-79.1241,2144.08)">
                <rect x="631.983" y="1607.11" width="176.444" height="176.444" style="fill:rgb(218,218,218);fill-opacity:0.4;"/>
            </g>
            <g transform="matrix(0.984488,-0.17545,0.17545,0.984488,554.858,168.043)">
                <rect x="631.983" y="1607.11" width="176.444" height="176.444" style="fill:rgb(218,218,218);fill-opacity:0.4;"/>
            </g>
            <g transform="matrix(0.936793,-0.349883,0.349883,0.936793,133.005,408.408)">
                <rect x="631.983" y="1607.11" width="176.444" height="176.444" style="fill:rgb(218,218,218);"/>
            </g>
            <g transform="matrix(0.632418,0.774628,-0.774628,0.632418,2790.63,219.561)">
                <rect x="631.983" y="1607.11" width="176.444" height="176.444" style="fill:rgb(218,218,218);"/>
            </g>
            <g transform="matrix(0.981785,0.189997,-0.189997,0.981785,1199.89,-21.9145)">
                <g transform="matrix(0.981785,-0.189997,0.189997,0.981785,119.353,405.626)">
                    <path d="M84.583,1193.3L90.235,1151.75L120.078,1181.2L84.583,1193.3Z"/>
                    <path d="M157.457,1349.01C157.457,1349.01 118.517,1234.75 99.911,1180.15" style="fill:none;stroke:black;stroke-width:12.5px;"/>
                </g>
            </g>
            <g transform="matrix(0.772656,0.634825,-0.634825,0.772656,2228.44,58.6178)">
                <g transform="matrix(0.772656,-0.634825,0.634825,0.772656,-547.638,890.482)">
                    <path d="M271.46,1139.83L283.783,1099.76L308.449,1133.66L271.46,1139.83Z" style="fill:rgb(164,164,164);"/>
                    <path d="M318.839,1309.87C318.839,1309.87 298.379,1187.24 288.72,1129.35" style="fill:none;stroke:rgb(164,164,164);stroke-width:12.5px;stroke-dasharray:12.5,25,0,0;"/>
                </g>
            </g>
            <g transform="matrix(-0.351562,0.936165,-0.936165,-0.351562,3587.6,1828.41)">
                <g transform="matrix(-0.351562,-0.936165,0.936165,-0.351562,-512.84,2700.27)">
                    <path d="M662.697,1203.84L698.886,1182.67L694.108,1224.33L662.697,1203.84Z" style="fill:rgb(164,164,164);"/>
                    <path d="M584.15,1358.62C584.15,1358.62 650.795,1256.42 682.499,1207.8" style="fill:none;stroke:rgb(164,164,164);stroke-width:12.5px;stroke-dasharray:12.5,25,0,0;"/>
                </g>
            </g>
            <g transform="matrix(0.635086,0.772441,-0.772441,0.635086,2904.57,357.717)">
                <g transform="matrix(0.635086,-0.772441,0.772441,0.635086,-1025.26,1312)">
                    <path d="M802.908,1328.72L843.755,1319.27L826.808,1357.62L802.908,1328.72Z"/>
                    <path d="M688.057,1448.05C688.057,1448.05 777.274,1374.26 820.638,1338.39" style="fill:none;stroke:black;stroke-width:12.5px;"/>
                </g>
            </g>
            <g transform="matrix(0.981785,0.189997,-0.189997,0.981785,1199.89,-21.9145)">
                <path d="M529.659,1700.15C692.306,1603.47 901.036,1561.62 1070,1696.57" style="fill:none;stroke:rgb(164,164,164);stroke-width:12.5px;stroke-dasharray:12.5,25,0,0;"/>
            </g>
            <g transform="matrix(-0.351562,0.936165,-0.936165,-0.351562,3491.12,1812.03)">
                <g transform="matrix(-0.351562,-0.936165,0.936165,-0.351562,-531.418,2604.18)">
                    <path d="M488.994,1150.86L515.308,1118.22L525.632,1158.86L488.994,1150.86Z" style="fill:rgb(164,164,164);"/>
                    <path d="M473.082,1311.72C473.082,1311.72 497.105,1201.64 508.912,1147.53" style="fill:none;stroke:rgb(164,164,164);stroke-width:12.5px;stroke-dasharray:12.5,25,0,0;"/>
                </g>
            </g>
        </g>
        <g transform="matrix(1,0,0,1,331.231,-230.075)">
            <g transform="matrix(0.939259,-0.34321,0.34321,0.939259,-198.756,-289.871)">
                <rect x="631.983" y="1607.11" width="176.444" height="176.444" style="fill:rgb(218,218,218);"/>
            </g>
            <g transform="matrix(0.939259,-0.34321,0.34321,0.939259,56.6237,-382.285)">
                <rect x="631.983" y="1607.11" width="176.444" height="176.444" style="fill:rgb(218,218,218);fill-opacity:0.4;"/>
            </g>
            <g transform="matrix(0.939259,-0.34321,0.34321,0.939259,299.144,-473.031)">
                <rect x="631.983" y="1607.11" width="176.444" height="176.444" style="fill:rgb(218,218,218);fill-opacity:0.4;"/>
            </g>
            <g transform="matrix(0.951755,0.306859,-0.306859,0.951755,1263.85,-386.408)">
                <rect x="631.983" y="1607.11" width="176.444" height="176.444" style="fill:rgb(218,218,218);"/>
            </g>
            <g transform="matrix(0.9497,0.313162,-0.313162,0.9497,1349.26,-624.541)">
                <rect x="631.983" y="1607.11" width="176.444" height="176.444" style="fill:rgb(218,218,218);fill-opacity:0.4;"/>
            </g>
            <g transform="matrix(0.99576,0.0919863,-0.0919863,0.99576,1003.03,-769.109)">
                <rect x="631.983" y="1607.11" width="176.444" height="176.444" style="fill:rgb(218,218,218);fill-opacity:0.4;"/>
            </g>
            <g transform="matrix(1,0,0,1,-143.974,-513.134)">
                <path d="M1203.53,1568.44L1698.56,1385.28" style="fill:none;stroke:rgb(164,164,164);stroke-width:12.5px;stroke-dasharray:12.5,25,0,0;"/>
            </g>
            <g transform="matrix(1,0,0,1,-143.974,-513.134)">
                <path d="M1572.28,1966.24L1674.41,1647.38C1691.07,1590.14 1724.76,1471.47 1698.56,1385.28" style="fill:none;stroke:rgb(164,164,164);stroke-width:12.5px;stroke-dasharray:12.5,25,0,0;"/>
            </g>
            <g transform="matrix(1,0,0,1,533.963,-639.343)">
                <g transform="matrix(1,-0,-0,1,374.807,1268.42)">
                    <path d="M79.984,277.079L84.956,235.449L115.277,264.405L79.984,277.079Z"/>
                    <path d="M155.443,431.732C155.443,431.732 114.602,318.002 95.095,263.683" style="fill:none;stroke:black;stroke-width:12.5px;"/>
                </g>
            </g>
            <g transform="matrix(1,0,0,1,786.124,-737.26)">
                <g transform="matrix(1,-0,-0,1,122.645,1366.34)">
                    <path d="M332.145,179.162L337.117,137.532L367.438,166.488L332.145,179.162Z" style="fill:rgb(164,164,164);"/>
                    <path d="M407.604,333.815C407.604,333.815 366.763,220.085 347.257,165.766" style="fill:none;stroke:rgb(164,164,164);stroke-width:12.5px;stroke-dasharray:12.5,25,0,0;"/>
                </g>
            </g>
            <g transform="matrix(1,0,0,1,1024.34,-828.007)">
                <g transform="matrix(1,-0,-0,1,-115.567,1457.08)">
                    <path d="M567.304,90.105L571.436,48.383L602.335,76.722L567.304,90.105Z" style="fill:rgb(164,164,164);"/>
                    <path d="M645.816,243.069C645.816,243.069 602.729,130.292 582.143,76.408" style="fill:none;stroke:rgb(164,164,164);stroke-width:12.5px;stroke-dasharray:12.5,25,0,0;"/>
                </g>
            </g>
            <g transform="matrix(-0.269853,0.962902,-0.962902,-0.269853,3208.49,1394.64)">
                <g transform="matrix(-0.269853,-0.962902,0.962902,-0.269853,-116.579,2420.99)">
                    <path d="M682.695,848.113L712.992,877.093L671.629,883.943L682.695,848.113Z"/>
                    <path d="M519.552,817.354C519.552,817.354 630.474,851.609 684.328,868.241" style="fill:none;stroke:black;stroke-width:12.5px;"/>
                </g>
            </g>
            <g transform="matrix(-0.201891,0.979408,-0.979408,-0.201891,3351.61,812.293)">
                <g transform="matrix(-0.201891,-0.979408,0.979408,-0.201891,313.744,2429.53)">
                    <path d="M818.273,355.585L853.452,378.393L814.097,392.851L818.273,355.585Z" style="fill:rgb(164,164,164);"/>
                    <path d="M655.462,356.211C655.462,356.211 768.343,368.858 823.638,375.053" style="fill:none;stroke:rgb(164,164,164);stroke-width:12.5px;stroke-dasharray:12.5,25,0,0;"/>
                </g>
            </g>
            <g transform="matrix(-0.269853,0.962902,-0.962902,-0.269853,3285.32,1160.18)">
                <g transform="matrix(-0.269853,-0.962902,0.962902,-0.269853,129.913,2431.7)">
                    <path d="M760.367,608.333L791.098,636.853L749.844,644.327L760.367,608.333Z" style="fill:rgb(164,164,164);"/>
                    <path d="M602.885,581.828C602.885,581.828 709.578,613.02 762.304,628.435" style="fill:none;stroke:rgb(164,164,164);stroke-width:12.5px;stroke-dasharray:12.5,25,0,0;"/>
                </g>
            </g>
            <g transform="matrix(0.999678,0.0253771,-0.0253771,0.999678,-701.496,-1423.54)">
                <path d="M2205.34,2281.02L2420.99,2194.38" style="fill:none;stroke:rgb(139,222,255);stroke-width:8.33px;"/>
            </g>
            <g transform="matrix(-0.00588099,0.999983,-0.999983,-0.00588099,3807.27,-1427.77)">
                <path d="M2205.34,2281.02L2420.99,2194.38" style="fill:none;stroke:rgb(139,222,255);stroke-width:8.33px;"/>
            </g>
            <g transform="matrix(0.999678,0.0253771,-0.0253771,0.999678,-720.783,-1418.98)">
                <path d="M2314.52,2240.18L2321.87,2259.04L2338.88,2252.31" style="fill:none;stroke:rgb(139,222,255);stroke-width:8.33px;"/>
            </g>
        </g>
    </g>
</svg>
